<mxfile host="app.diagrams.net" modified="2024-04-15T01:34:41.623Z" agent="Mozilla/5.0 (Macintosh; Intel Mac OS X 10_15_7) AppleWebKit/537.36 (KHTML, like Gecko) Chrome/123.0.0.0 Safari/537.36" version="24.2.5" etag="a4m-qV4hQpVua_vYZ0hl" type="github">
  <diagram name="第 1 页" id="8aomwRSpkWM5J7tpXGyU">
    <mxGraphModel>
      <root>
        <mxCell id="0" />
        <mxCell id="1" parent="0" />
      </root>
    </mxGraphModel>
  </diagram>
</mxfile>
